<svg xmlns="http://www.w3.org/2000/svg" width="24" height="24" viewBox="0 0 24 24">
  <path fill="#DB4C40" fill-rule="evenodd" d="M12.45 0a8.46 8.46 0 0 1 8.452 8.45c0 4.53-7.8 14.705-8.132 15.136l-.32.414-.318-.414C11.8 23.156 4 12.98 4 8.45A8.46 8.46 0 0 1 12.45 0zm0 22.673c1.486-1.989 7.647-10.459 7.647-14.222a7.646 7.646 0 0 0-15.292 0c0 3.764 6.16 12.233 7.646 14.222zm0-17.04a2.817 2.817 0 1 1 0 5.634 2.817 2.817 0 0 1 0-5.633zm0 4.83a2.012 2.012 0 1 0 0-4.024 2.012 2.012 0 0 0 0 4.024z"/>
</svg>
