<svg xmlns="http://www.w3.org/2000/svg" xmlns:xlink="http://www.w3.org/1999/xlink" width="24" height="24" viewBox="0 0 24 24">
  <path d="M14.5,4.5 L16.4166667,6.41666667 L14.0083333,8.80833333 L15.1916667,9.99166667 L17.5833333,7.58333333 L19.5,9.5 L19.5,4.5 L14.5,4.5 Z M4.5,9.5 L6.41666667,7.58333333 L8.80833333,9.99166667 L9.99166667,8.80833333 L7.58333333,6.41666667 L9.5,4.5 L4.5,4.5 L4.5,9.5 Z M9.5,19.5 L7.58333333,17.5833333 L9.99166667,15.1916667 L8.80833333,14.0083333 L6.41666667,16.4166667 L4.5,14.5 L4.5,19.5 L9.5,19.5 Z M19.5,14.5 L17.5833333,16.4166667 L15.1916667,14.0083333 L14.0083333,15.1916667 L16.4166667,17.5833333 L14.5,19.5 L19.5,19.5 L19.5,14.5 Z"/>
</svg>
