<svg xmlns="http://www.w3.org/2000/svg" width="373" height="31" viewBox="0 0 373 31">
        <path fill="#DB4C40" d="M36.818 28.027a.38.38 0 0 1-.35.18.372.372 0 0 1-.325-.223l-.112-.25.601-.97.407.908-.221.355zm-1.167-1.142l-.405-.908.6-.971.406.907-.6.972zm-.711 1.15a.382.382 0 0 1-.351.179.373.373 0 0 1-.325-.224l-.11-.248.6-.971.406.907-.22.357zm-1.168-1.144l-.405-.907.6-.972.406.908-.6.97zm-.71 1.15a.38.38 0 0 1-.352.18.37.37 0 0 1-.324-.224l-.111-.249.6-.971.407.908-.22.356zm-1.168-1.143l-.406-.908.6-.97.408.907-.602.971zm-.71 1.15a.38.38 0 0 1-.352.18.375.375 0 0 1-.325-.224l-.11-.249.6-.971.406.907-.22.357zm-1.168-1.144L21.323 7.473l.533-1.122 8.76 19.582-.6.971zm-.711 1.15a.383.383 0 0 1-.675-.044L20.354 9.512l.532-1.123 8.64 19.31-.221.355zM19.445 7.48l.533-1.122.494 1.106-.533 1.121-.495-1.105zm-.91-2.032l.533-1.122.495 1.105-.533 1.123-.494-1.106zm-.909-2.032l.533-1.122.494 1.106-.532 1.12-.495-1.104zm-.91-2.032l.177-.372a.378.378 0 0 1 .347-.217c.096.012.255.015.349.224l.156.349-.534 1.121-.494-1.105zm2.056-.379a.377.377 0 0 1 .346-.217c.095.008.256.015.349.224l.156.349-.533 1.121-.494-1.105.176-.372zm1.266 1.282l.494 1.105L20 4.515l-.495-1.105.534-1.123zM20.65.998a.379.379 0 0 1 .347-.216c.094.002.255.015.349.224l.155.348-.533 1.122-.495-1.105.177-.373zm.79 4.427l-.532 1.121-.495-1.105.533-1.122.495 1.106zm.475-3.145l.495 1.106-.533 1.122-.494-1.105.532-1.123zM22.53.992a.377.377 0 0 1 .346-.217.347.347 0 0 1 .35.224l.154.349-.532 1.12-.495-1.104.177-.372zm9.18 23.176l-.6.972L22.29 5.434l.534-1.121 8.884 19.855zM23.794 2.274l9.006 20.13-.6.971-8.94-19.98.534-1.12zm9.793 21.888l-.601.971-.406-.907.601-.971.406.907zM24.407.985a.375.375 0 0 1 .346-.216c.091-.008.255.014.35.224l8.79 19.646-.602.972L24.23 1.357l.177-.372zM34.68 22.397l-.6.972-.407-.907.601-.972.406.907zm.38.852l.406.907-.6.97-.407-.907.6-.97zM56.027.01l-17.33 28.011a.387.387 0 0 1-.351.18.377.377 0 0 1-.325-.225l-.111-.247L55.059.01h-.907L37.53 26.878l-.406-.908L53.185.01h-.906L36.742 25.12l-.405-.908L51.31.01h-.906L35.957 23.362l-.407-.907L49.437.01h-.907L35.17 21.604l-.406-.907L47.564.01h-.907L34.384 19.846 25.809.683a1.143 1.143 0 0 0-1.043-.679c-.403-.037-.743.176-.955.494a1.14 1.14 0 0 0-.924-.488c-.404-.033-.741.178-.954.495a1.141 1.141 0 0 0-.924-.488c-.405-.03-.742.179-.955.495a1.137 1.137 0 0 0-.924-.489c-.404-.027-.742.18-.955.496a1.137 1.137 0 0 0-.924-.488c-.405-.025-.74.179-.953.495a1.136 1.136 0 0 0-.924-.488c-.476-.026-.865.245-1.06.656L.868 28.983h.854L15.015 1.018a.375.375 0 0 1 .346-.216c.098.018.255.015.35.224l.155.348L2.741 28.983h.855L16.281 2.3l.495 1.106-12.16 25.576h.856L17.19 4.333l.495 1.105L6.492 28.983h.854L18.1 6.365l.494 1.105L8.366 28.983h.855l9.787-20.586.495 1.106-9.262 19.48h.855l8.82-18.555 8.005 17.891c.175.39.552.65.982.678.412.03.789-.163 1.018-.49.2.276.509.458.86.483.412.028.789-.163 1.019-.49a1.144 1.144 0 0 0 1.878-.006 1.148 1.148 0 0 0 1.879-.007 1.145 1.145 0 0 0 1.878-.007c.198.276.507.46.86.483a1.15 1.15 0 0 0 1.061-.544L56.933.01h-.906z"/>
        <path fill="#1B2026" d="M73.232 15.136v13.125h-2.83v-5.499h-7.789v5.5h-2.848V15.135h2.848v5.14h7.788v-5.14h2.831zm16.428 0v2.471h-8.419v2.848h7.878l-.992 2.398h-6.886v2.94h9.014v2.468H78.392V15.136H89.66zm16.626 3.282a9.148 9.148 0 0 0-4.49-1.19c-3.209 0-5.174 1.712-5.174 4.29 0 2.759 2.236 4.544 5.535 4.544 1.839 0 3.624-.541 5.03-1.496v2.83c-1.532.775-3.299 1.172-5.156 1.172-4.958 0-8.294-2.795-8.294-6.977 0-4.04 3.138-6.78 8.078-6.78 1.785 0 3.606.362 5.463 1.173l-.993 2.434zm16.156-3.282v2.506h-5.12v10.62h-2.83v-10.62h-5.103v-2.506h13.053zm5.52 8.042h5.427l-2.722-5.661-2.705 5.66zm-5.283 5.084l6.365-13.126h3.353l6.364 13.126h-3.083l-1.316-2.723h-7.392l-1.298 2.723h-2.993zm32.78-13.126v13.125h-2.831v-5.499h-7.788v5.5h-2.848V15.135h2.848v5.14h7.788v-5.14h2.83zm7.738 10.656h6.923l-3.48-7.951-3.443 7.95zm5.229-10.656l4.705 10.656h1.515l-.29 4.759h-2.397v-2.29h-10.673l-.198 2.29h-2.398v-4.76h1.514l4.724-10.655h3.498zm12.803 8.042h5.427l-2.723-5.661-2.704 5.66zm-5.283 5.084l6.365-13.126h3.353l6.364 13.126h-3.082l-1.317-2.723h-7.392l-1.298 2.723h-2.993zm27.281-13.126c2.974 0 4.85 1.66 4.85 4.291 0 2.614-1.839 4.201-4.85 4.201h-4.2l1.062-2.47h3.354c1.172 0 1.785-.72 1.785-1.785 0-1.172-.739-1.766-1.857-1.766h-5.265v10.654h-2.848V15.136h7.97zm20.015 0v2.506h-5.12v10.62h-2.83v-10.62h-5.103v-2.506h13.053zm16.68 0v13.125h-2.83v-5.499h-7.79v5.5h-2.848V15.135h2.848v5.14h7.79v-5.14h2.83zm20.989 13.125V15.136h2.848v13.125h-2.848zM247.93 15.136v10.656h5.083c1.28 0 2.038-.668 2.038-1.768 0-1.099-.758-1.784-2.038-1.784h-4.164l1.028-2.452h3.136c3.03 0 4.887 1.586 4.887 4.218 0 2.633-1.857 4.255-4.887 4.255h-7.932V15.136h2.849zm32.24 0v2.471h-8.42v2.848h7.88l-.992 2.398h-6.887v2.94h9.014v2.468h-11.863V15.136h11.268zm24.902 0l-5.769 6.058 6.238 7.067h-3.678l-6.094-6.958 5.86-6.167h3.443zm-12.89 13.125V15.136h2.848v13.125h-2.849zm18.896 0l2.615-4.921-1.551.27-5.3-8.473h3.263l4.273 6.905L318 15.137h3.156l-7.068 13.125h-3.011zm25.929-13.125l-5.264 6.527 5.517 6.598h-3.57l-4.02-4.795-3.86 4.795h-3.334l5.517-6.814-5.264-6.31h3.57l3.749 4.488 3.605-4.489h3.354zm17.148 0v13.125h-2.83v-5.499h-7.789v5.5h-2.849V15.135h2.85v5.14h7.788v-5.14h2.83zm8.009 0v9.213l7.698-9.213h2.83v13.125h-2.83v-9.195l-7.698 9.195h-2.85V15.136h2.85z"/>
</svg>
