<svg xmlns="http://www.w3.org/2000/svg" width="1440" height="1306" viewBox="0 0 1440 1306">
  <g fill="none" fill-rule="evenodd">
    <polygon fill="#F6E8EA" points="0 1305 1440 780.883 1440 781.883 0 1306"/>
    <polygon fill="#F6E8EA" points="0 1285 1440 760.883 1440 761.883 0 1286"/>
    <polygon fill="#F6E8EA" points="0 1265 1440 740.883 1440 741.883 0 1266"/>
    <polygon fill="#F6E8EA" points="0 1245 1440 720.883 1440 721.883 0 1246"/>
    <polygon fill="#F6E8EA" points="0 1225 1440 700.883 1440 701.883 0 1226"/>
    <polygon fill="#F6E8EA" points="0 1205 1440 680.883 1440 681.883 0 1206"/>
    <polygon fill="#F6E8EA" points="0 1185 1440 660.883 1440 661.883 0 1186"/>
    <polygon fill="#F6E8EA" points="0 1165 1440 640.883 1440 641.883 0 1166"/>
    <polygon fill="#F6E8EA" points="0 1145 1440 620.883 1440 621.883 0 1146"/>
    <polygon fill="#F6E8EA" points="0 1125 1440 600.883 1440 601.883 0 1126"/>
    <polygon fill="#F6E8EA" points="0 1105 1440 580.883 1440 581.883 0 1106"/>
    <polygon fill="#F6E8EA" points="0 1085 1440 560.883 1440 561.883 0 1086"/>
    <polygon fill="#F6E8EA" points="0 1065 1440 540.883 1440 541.883 0 1066"/>
    <polygon fill="#F6E8EA" points="0 1045 1440 520.883 1440 521.883 0 1046"/>
    <polygon fill="#F6E8EA" points="0 1025 1440 500.883 1440 501.883 0 1026"/>
    <polygon fill="#F6E8EA" points="0 1005 1440 480.883 1440 481.883 0 1006"/>
    <polygon fill="#F6E8EA" points="0 985 1440 460.883 1440 461.883 0 986"/>
    <polygon fill="#F6E8EA" points="0 965 1440 440.883 1440 441.883 0 966"/>
    <polygon fill="#F6E8EA" points="0 945 1440 420.883 1440 421.883 0 946"/>
    <polygon fill="#F6E8EA" points="0 925 1440 400.883 1440 401.883 0 926"/>
    <polygon fill="#F6E8EA" points="0 905 1440 380.883 1440 381.883 0 906"/>
    <polygon fill="#F6E8EA" points="0 885 1440 360.883 1440 361.883 0 886"/>
    <polygon fill="#F6E8EA" points="0 865 1440 340.883 1440 341.883 0 866"/>
    <polygon fill="#F6E8EA" points="0 845 1440 320.883 1440 321.883 0 846"/>
    <polygon fill="#F6E8EA" points="0 825 1440 300.883 1440 301.883 0 826"/>
    <polygon fill="#F6E8EA" points="0 805 1440 280.883 1440 281.883 0 806"/>
    <polygon fill="#F6E8EA" points="0 785 1440 260.883 1440 261.883 0 786"/>
    <polygon fill="#F6E8EA" points="0 765 1440 240.883 1440 241.883 0 766"/>
    <polygon fill="#F6E8EA" points="0 745 1440 220.883 1440 221.883 0 746"/>
    <polygon fill="#F6E8EA" points="0 725 1440 200.883 1440 201.883 0 726"/>
    <polygon fill="#F6E8EA" points="0 705 1440 180.883 1440 181.883 0 706"/>
    <polygon fill="#F6E8EA" points="0 685 1440 160.883 1440 161.883 0 686"/>
    <polygon fill="#F6E8EA" points="0 665 1440 140.883 1440 141.883 0 666"/>
    <polygon fill="#F6E8EA" points="0 645 1440 120.883 1440 121.883 0 646"/>
    <polygon fill="#F6E8EA" points="0 625 1440 100.883 1440 101.883 0 626"/>
    <polygon fill="#F6E8EA" points="0 605 1440 80.883 1440 81.883 0 606"/>
    <polygon fill="#F6E8EA" points="0 585 1440 60.883 1440 61.883 0 586"/>
    <polygon fill="#F6E8EA" points="0 565 1440 40.883 1440 41.883 0 566"/>
    <polygon fill="#F6E8EA" points="0 545 1440 20.883 1440 21.883 0 546"/>
    <polygon fill="#F6E8EA" points="0 525 1440 .883 1440 1.883 0 526"/>
  </g>
</svg>
