<?xml version="1.0" standalone="no"?>
<!DOCTYPE svg PUBLIC "-//W3C//DTD SVG 20010904//EN"
 "http://www.w3.org/TR/2001/REC-SVG-20010904/DTD/svg10.dtd">
<svg version="1.0" xmlns="http://www.w3.org/2000/svg"
 width="400.000000pt" height="400.000000pt" viewBox="0 0 400.000000 400.000000"
 preserveAspectRatio="xMidYMid meet">
<metadata>
Created by potrace 1.11, written by Peter Selinger 2001-2013
</metadata>
<g transform="translate(0.000000,400.000000) scale(0.100000,-0.100000)"
fill="#000000" stroke="none">
<path d="M991 3013 c-24 -16 -76 -120 -288 -573 -20 -41 -73 -153 -119 -248
-46 -96 -84 -175 -84 -177 0 -1 -34 -74 -76 -161 -42 -88 -116 -242 -164 -344
-48 -102 -113 -239 -144 -304 -31 -65 -66 -140 -78 -165 -11 -25 -25 -54 -30
-63 -7 -15 -4 -18 22 -18 29 0 33 5 110 166 44 91 80 167 80 169 0 1 38 81 84
176 46 96 95 199 109 229 13 30 55 118 92 195 37 77 80 167 95 200 15 33 58
123 95 200 37 77 89 185 115 240 209 444 201 429 223 433 8 2 20 -6 26 -16 9
-17 -1 -46 -55 -159 -98 -204 -152 -317 -247 -518 -47 -99 -111 -234 -142
-300 -31 -66 -97 -203 -145 -305 -156 -328 -181 -382 -256 -539 -41 -84 -74
-157 -74 -162 0 -5 12 -9 28 -9 26 0 33 13 147 253 65 138 153 322 193 407 41
85 89 187 107 225 63 135 123 261 187 395 36 74 83 173 106 220 22 47 75 157
117 245 l76 160 15 -34 c8 -18 14 -38 14 -43 0 -6 -19 -49 -41 -97 -40 -82
-90 -187 -174 -366 -21 -44 -65 -136 -98 -205 -54 -113 -169 -357 -267 -565
-21 -44 -68 -143 -105 -220 -98 -203 -175 -367 -175 -371 0 -2 14 -4 31 -4 25
0 32 6 44 33 7 18 57 122 109 231 53 109 96 200 96 202 0 1 33 72 74 156 40
84 110 230 154 323 44 94 112 238 152 320 39 83 108 228 152 323 l81 172 17
-37 c20 -44 23 -35 -65 -218 -37 -77 -80 -167 -95 -200 -15 -33 -53 -114 -85
-180 -31 -66 -74 -156 -95 -200 -21 -44 -64 -134 -95 -200 -32 -66 -74 -156
-95 -200 -21 -44 -66 -138 -100 -210 -34 -71 -76 -159 -92 -195 -17 -36 -36
-77 -44 -92 -14 -28 -14 -28 16 -28 34 0 23 -20 213 380 19 41 69 146 111 234
42 87 76 159 76 161 0 1 40 85 89 186 48 101 100 209 114 239 14 30 55 118 92
195 37 77 76 158 85 179 l18 39 16 -31 c24 -47 43 1 -164 -432 -56 -118 -119
-251 -140 -295 -114 -241 -193 -408 -295 -620 -68 -141 -105 -223 -105 -231 0
-2 13 -4 28 -4 26 0 32 7 65 77 19 43 68 146 107 228 40 83 87 182 105 220 18
39 61 129 95 200 58 122 83 173 189 399 125 264 161 336 165 336 3 0 12 -16
20 -35 17 -39 37 10 -183 -449 -39 -82 -71 -150 -71 -151 0 -1 -38 -81 -84
-176 -46 -96 -99 -208 -119 -249 -19 -41 -61 -129 -92 -195 -31 -66 -65 -139
-76 -162 l-18 -43 30 0 c28 0 33 6 63 72 19 40 64 136 101 213 37 77 102 214
145 305 79 168 126 266 256 538 40 83 76 161 79 173 4 12 11 17 15 13 5 -5 47
-94 93 -199 89 -198 114 -254 177 -395 21 -47 97 -218 170 -380 82 -187 140
-303 156 -317 29 -27 70 -30 94 -8 15 14 20 14 46 0 37 -19 59 -19 89 1 22 14
26 14 47 0 28 -20 57 -20 85 -1 19 13 24 13 50 0 36 -19 53 -19 80 0 19 13 25
13 59 -1 35 -14 41 -14 71 0 30 14 36 14 56 2 33 -22 77 -13 107 22 14 16 67
99 119 183 52 85 140 228 196 319 56 91 198 320 315 510 117 190 270 437 340
550 70 113 164 265 209 338 l81 132 -33 0 c-30 0 -36 -7 -86 -88 -91 -146
-339 -547 -731 -1182 -479 -775 -457 -742 -478 -738 -43 8 -43 8 388 703 48
77 134 217 192 310 58 94 218 353 356 577 139 224 252 409 252 412 0 3 -13 6
-29 6 -24 0 -34 -9 -59 -47 -16 -27 -119 -192 -228 -368 -108 -176 -256 -414
-327 -530 -72 -115 -223 -361 -337 -545 -292 -473 -259 -425 -275 -403 -8 10
-15 24 -15 31 0 7 212 356 472 775 259 419 493 798 520 842 66 108 68 110 111
179 l38 61 -31 3 c-18 2 -33 2 -34 0 -108 -175 -382 -618 -576 -933 -95 -154
-187 -302 -204 -330 -18 -27 -97 -155 -176 -282 -79 -128 -146 -233 -150 -233
-4 0 -12 11 -18 25 -11 24 21 80 485 828 273 441 513 830 534 865 l39 62 -34
0 c-30 0 -37 -6 -71 -62 -60 -97 -754 -1221 -878 -1421 -60 -98 -114 -174
-118 -170 -4 4 -10 19 -14 33 -4 19 8 47 53 120 33 52 148 239 257 415 108
176 207 336 220 355 58 89 445 721 445 726 0 3 -14 4 -31 2 -34 -3 -21 16
-326 -478 -66 -107 -210 -339 -318 -515 -166 -267 -309 -499 -332 -539 -3 -5
-12 6 -20 24 l-13 33 152 246 c83 135 263 426 399 646 135 220 272 441 302
490 l56 90 -30 3 c-17 2 -32 2 -33 0 -2 -2 -128 -205 -281 -453 -550 -891
-590 -954 -597 -947 -6 7 -180 395 -479 1067 -82 184 -139 298 -155 313 -28
25 -70 28 -98 7 -16 -12 -22 -12 -47 0 -36 19 -59 19 -87 -1 -20 -14 -24 -14
-44 0 -28 20 -57 20 -85 1 -19 -13 -24 -13 -50 0 -36 19 -58 19 -88 -1 -21
-14 -26 -14 -48 1 -26 16 -69 14 -92 -5 -9 -7 -20 -6 -41 5 -37 19 -54 19 -83
-2z m737 -45 c5 -7 24 -47 42 -88 18 -41 43 -97 56 -125 12 -27 40 -90 62
-140 22 -49 137 -307 255 -573 l216 -482 -17 -30 c-9 -16 -20 -30 -23 -30 -3
0 -66 134 -139 298 -181 405 -348 779 -370 827 -48 105 -140 316 -140 320 0 7
31 35 39 35 5 0 13 -6 19 -12z m-538 -23 c5 -13 1 -33 -10 -55 l-19 -35 -15
38 c-13 28 -14 42 -6 58 14 25 40 21 50 -6z m140 6 c7 -14 6 -29 -5 -55 -9
-20 -17 -36 -20 -36 -3 0 -11 16 -20 36 -16 39 -7 74 20 74 8 0 19 -9 25 -19z
m130 0 c7 -14 6 -29 -5 -55 -17 -41 -28 -40 -43 2 -18 53 23 99 48 53z m130
-1 c8 -15 6 -28 -9 -57 l-19 -38 -16 37 c-13 31 -14 42 -4 58 16 25 34 26 48
0z m-335 -124 c13 -30 13 -39 0 -70 -9 -20 -17 -36 -20 -36 -3 0 -11 16 -20
35 -13 32 -13 39 2 70 9 19 18 35 20 35 2 0 10 -15 18 -34z m131 -1 c13 -32
13 -38 -5 -72 l-19 -38 -15 38 c-14 33 -14 41 -1 72 8 19 17 35 20 35 3 0 12
-16 20 -35z m139 1 c13 -30 13 -39 0 -70 -9 -20 -17 -36 -20 -36 -3 0 -11 16
-20 35 -13 32 -13 39 2 70 9 19 18 35 20 35 2 0 10 -15 18 -34z m141 -19 c12
-28 155 -350 317 -714 l296 -663 -17 -30 c-9 -16 -20 -30 -23 -30 -3 0 -55
109 -114 243 -96 217 -136 305 -210 472 -13 28 -89 197 -169 378 l-146 327 17
35 c9 19 19 35 22 35 3 0 16 -24 27 -53z m-355 -204 l-19 -38 -15 38 c-15 33
-15 41 0 74 l15 38 19 -38 c19 -36 19 -38 0 -74z m144 71 c13 -33 13 -39 -4
-72 l-19 -37 -16 38 c-14 35 -14 41 1 72 9 19 18 35 20 35 1 0 9 -16 18 -36z
m432 -669 l312 -705 -17 -30 c-9 -16 -20 -30 -23 -30 -3 0 -146 315 -317 700
l-312 700 17 35 c9 19 19 35 22 35 3 -1 146 -318 318 -705z m-502 529 c13 -33
13 -39 -4 -72 l-19 -37 -16 38 c-14 35 -14 41 1 72 9 19 18 35 20 35 1 0 9
-16 18 -36z m329 -442 c113 -254 219 -492 236 -528 16 -36 30 -67 30 -69 0 -3
14 -35 31 -72 17 -38 49 -108 70 -156 37 -86 37 -88 21 -117 -9 -17 -20 -30
-23 -30 -3 0 -77 161 -164 358 -87 196 -172 386 -188 422 -16 36 -83 185 -148
333 l-119 267 17 35 c9 19 20 32 24 28 4 -5 100 -216 213 -471z m-54 -187
c122 -275 257 -580 300 -678 44 -98 77 -184 74 -192 -8 -20 -36 -28 -50 -13
-6 7 -143 309 -303 670 l-291 658 17 35 c9 19 20 32 24 28 4 -5 107 -233 229
-508z m738 -452 c7 -21 5 -35 -6 -55 -9 -16 -19 -28 -23 -28 -4 0 -12 12 -17
28 -7 20 -5 34 6 55 9 15 19 27 23 27 4 0 12 -12 17 -27z m-79 -119 c9 -21 8
-31 -6 -55 -21 -36 -29 -36 -40 -2 -7 20 -5 35 6 55 20 34 25 35 40 2z m139
-1 c7 -21 5 -35 -6 -55 -9 -16 -19 -28 -23 -28 -4 0 -12 12 -17 28 -7 20 -5
34 6 55 9 15 19 27 23 27 4 0 12 -12 17 -27z m-210 -130 c7 -21 5 -35 -6 -55
-20 -34 -26 -35 -39 -5 -9 18 -7 31 4 55 19 39 29 40 41 5z m131 1 c10 -22 9
-31 -8 -56 l-19 -31 -16 25 c-15 24 -15 27 1 57 22 38 26 38 42 5z m129 -1 c7
-21 5 -35 -6 -55 -9 -16 -19 -28 -23 -28 -4 0 -12 12 -17 28 -7 20 -5 34 6 55
9 15 19 27 23 27 4 0 12 -12 17 -27z m-340 -119 c21 -44 -18 -85 -47 -50 -9
10 -7 21 6 45 22 38 27 38 41 5z m130 1 c6 -14 9 -31 6 -39 -9 -23 -37 -29
-51 -10 -10 14 -9 22 4 45 21 35 27 36 41 4z m140 0 c6 -14 9 -31 6 -39 -9
-23 -37 -29 -51 -10 -10 14 -9 22 4 45 21 35 27 36 41 4z m130 -1 c20 -43 -18
-86 -46 -51 -8 9 -6 22 5 45 19 39 26 40 41 6z"/>
</g>
</svg>
